HIERARCHY
ROOT Pelvis
{
	OFFSET 0.000000 0.000000 0.000000
	CHANNELS 6 Xposition Yposition Zposition Xrotation Yrotation Zrotation
	JOINT LeftUpLeg_virtual
	{
		OFFSET 0.000000 0.000000 0.000000
		CHANNELS 3 Xrotation Yrotation Zrotation
		JOINT LeftUpLeg
		{
			OFFSET 18.735201 -5.666702 -4.541200
			CHANNELS 3 Xrotation Yrotation Zrotation
			JOINT LeftLeg
			{
				OFFSET -0.021200 -31.938179 0.493100
				CHANNELS 3 Xrotation Yrotation Zrotation
				JOINT LeftFoot
				{
					OFFSET 0.021200 -31.938179 -4.336299
					CHANNELS 3 Xrotation Yrotation Zrotation
					JOINT LeftToeBase
					{
						OFFSET 0.943001 -26.722000 15.023500
						CHANNELS 3 Xrotation Yrotation Zrotation
						End Site
						{
							OFFSET 0 0 0
						}
					}
				}
			}
		}
	}
	JOINT RightUpLeg_virtual
	{
		OFFSET 0.000000 0.000000 0.000000
		CHANNELS 3 Xrotation Yrotation Zrotation
		JOINT RightUpLeg
		{
			OFFSET -18.735201 -5.666702 -4.541200
			CHANNELS 3 Xrotation Yrotation Zrotation
			JOINT RightLeg
			{
				OFFSET 0.018946 -31.938133 0.493100
				CHANNELS 3 Xrotation Yrotation Zrotation
				JOINT RightFoot
				{
					OFFSET -0.018946 -31.938126 -4.336299
					CHANNELS 3 Xrotation Yrotation Zrotation
					JOINT RightToeBase
					{
						OFFSET -0.943001 -26.722004 15.023500
						CHANNELS 3 Xrotation Yrotation Zrotation
						End Site
						{
							OFFSET 0 0 0
						}
					}
				}
			}
		}
	}
	JOINT Hips_virtual
	{
		OFFSET 0.000000 0.000000 0.000000
		CHANNELS 3 Xrotation Yrotation Zrotation
		JOINT Hips
		{
			OFFSET -0.000000 -0.000000 -0.000000
			CHANNELS 3 Xrotation Yrotation Zrotation
			JOINT Spine
			{
				OFFSET 0.000000 10.199997 -0.299500
				CHANNELS 3 Xrotation Yrotation Zrotation
				JOINT Spine1
				{
					OFFSET 0.000000 11.900002 -1.516600
					CHANNELS 3 Xrotation Yrotation Zrotation
					JOINT Spine2
					{
						OFFSET 0.000000 13.600006 -2.842500
						CHANNELS 3 Xrotation Yrotation Zrotation
						JOINT Neck_virtual
						{
							OFFSET 0.000000 0.000000 0.000000
							CHANNELS 3 Xrotation Yrotation Zrotation
							JOINT Neck
							{
								OFFSET 0.000000 9.624100 -2.890100
								CHANNELS 3 Xrotation Yrotation Zrotation
								JOINT Head
								{
									OFFSET 0.000000 14.068802 -1.351900
									CHANNELS 3 Xrotation Yrotation Zrotation
									End Site
									{
										OFFSET 0 0 0
									}
								}
							}
						}
						JOINT LeftShoulder_virtual
						{
							OFFSET 0.000000 0.000000 0.000000
							CHANNELS 3 Xrotation Yrotation Zrotation
							JOINT LeftShoulder
							{
								OFFSET 15.263000 10.923401 -0.547700
								CHANNELS 3 Xrotation Yrotation Zrotation
								JOINT LeftArm
								{
									OFFSET 25.438599 -2.830597 -13.032500
									CHANNELS 3 Xrotation Yrotation Zrotation
									JOINT LeftForeArm
									{
										OFFSET 29.960503 0.000000 0.000000
										CHANNELS 3 Xrotation Yrotation Zrotation
										JOINT LeftHand
										{
											OFFSET 27.849251 0.000000 0.000000
											CHANNELS 3 Xrotation Yrotation Zrotation
											End Site
											{
												OFFSET 0 0 0
											}
										}
									}
								}
							}
						}
						JOINT RightShoulder_virtual
						{
							OFFSET 0.000000 0.000000 0.000000
							CHANNELS 3 Xrotation Yrotation Zrotation
							JOINT RightShoulder
							{
								OFFSET -15.263000 10.923401 -0.547700
								CHANNELS 3 Xrotation Yrotation Zrotation
								JOINT RightArm
								{
									OFFSET -25.438599 -2.830597 -13.032500
									CHANNELS 3 Xrotation Yrotation Zrotation
									JOINT RightForeArm
									{
										OFFSET -29.960503 0.000000 0.000000
										CHANNELS 3 Xrotation Yrotation Zrotation
										JOINT RightHand
										{
											OFFSET -27.849251 0.000000 0.000000
											CHANNELS 3 Xrotation Yrotation Zrotation
											End Site
											{
												OFFSET 0 0 0
											}
										}
									}
								}
							}
						}
					}
				}
			}
		}
	}
}
MOTION
Frames: 5
Frame Time: 0.03333333
-1.321558 77.649078 5.240446 0.000000 0.000000 0.000000 -9.003826 -19.565132 2.087309 -57.489654 1.612833 21.593406 50.001820 -9.835756 -1.870341 -2.369384 -9.497565 -15.562144 0.000000 0.000000 0.000000 9.208910 -36.403047 -3.831663 -21.449410 -14.340624 -25.068247 44.347940 6.750098 2.081115 -12.624408 0.910287 19.317349 0.000000 0.000000 0.000000 0.923448 -20.482614 0.755697 7.003171 -35.858042 6.044824 9.911871 6.703139 -4.245421 4.741666 4.549195 -2.808772 0.000000 0.000000 0.000000 -0.223635 4.967498 -2.174560 -2.179606 2.355639 -0.186847 0.000000 0.000000 0.000000 -3.112309 3.483589 -2.652215 -3.778755 -4.002955 -5.818865 -29.473407 16.383392 -50.760648 -10.979629 -24.855989 -9.101283 0.000000 0.000000 0.000000 -4.123636 5.680067 -2.011044 -5.177667 21.508594 0.333176 -21.472470 -18.842885 46.281734 -11.355309 22.713977 13.213037 0.000000 0.000000 0.000000 
-1.175363 77.714523 5.379292 0.000000 0.000000 0.000000 -9.112493 -19.528966 2.005506 -57.620760 1.632014 21.550246 50.007951 -9.806164 -1.883490 -2.292070 -9.478219 -15.577858 0.000000 0.000000 0.000000 9.199682 -36.528962 -3.940037 -21.403702 -14.360942 -25.178125 44.316248 6.856894 2.171849 -12.638332 0.957538 19.507159 0.000000 0.000000 0.000000 0.899264 -20.695856 0.788870 6.970546 -35.598973 5.912822 9.852628 6.630337 -4.212300 4.766577 4.512329 -2.811862 0.000000 0.000000 0.000000 -0.201951 4.891269 -2.130879 -2.177253 2.321129 -0.162886 0.000000 0.000000 0.000000 -3.139242 3.428676 -2.614219 -3.788578 -4.230464 -5.477730 -29.470501 16.536976 -50.850676 -10.970767 -24.675136 -9.189070 0.000000 0.000000 0.000000 -4.172895 5.672182 -2.034906 -5.161658 21.369927 0.293822 -21.245035 -19.149383 46.218183 -11.274452 22.373972 13.212557 0.000000 0.000000 0.000000 
-0.900471 77.837700 5.640977 0.000000 0.000000 0.000000 -9.293937 -19.462836 1.868759 -57.846122 1.665716 21.482275 50.009470 -9.743991 -1.906540 -2.162892 -9.432149 -15.598417 0.000000 0.000000 0.000000 9.177972 -36.776109 -4.141487 -21.326222 -14.401532 -25.383978 44.254479 7.055777 2.347703 -12.663755 1.042773 19.870187 0.000000 0.000000 0.000000 0.856969 -21.132651 0.861779 6.872563 -35.079947 5.652506 9.746835 6.488155 -4.145600 4.817713 4.434221 -2.817072 0.000000 0.000000 0.000000 -0.159585 4.738524 -2.046911 -2.170249 2.249713 -0.117113 0.000000 0.000000 0.000000 -3.178928 3.316427 -2.547278 -3.794944 -4.667999 -4.851606 -29.435708 16.834350 -51.018802 -10.953671 -24.342760 -9.358312 0.000000 0.000000 0.000000 -4.258283 5.645974 -2.074994 -5.132832 21.081968 0.230769 -20.863455 -19.705811 46.087518 -11.132495 21.776345 13.217059 0.000000 0.000000 0.000000 
-0.525389 78.006493 5.997441 0.000000 0.000000 0.000000 -9.492722 -19.375078 1.715689 -58.108005 1.708266 21.414964 49.991261 -9.644842 -1.934067 -2.021999 -9.347930 -15.606409 0.000000 0.000000 0.000000 9.140155 -37.139318 -4.409511 -21.237818 -14.463709 -25.662436 44.161281 7.320251 2.598167 -12.699431 1.149117 20.375405 0.000000 0.000000 0.000000 0.807353 -21.800765 0.984208 6.663831 -34.309413 5.276619 9.619199 6.282516 -4.046120 4.896972 4.308841 -2.822629 0.000000 0.000000 0.000000 -0.096437 4.509308 -1.928687 -2.154804 2.138356 -0.053254 0.000000 0.000000 0.000000 -3.207046 3.143488 -2.465707 -3.776746 -5.282676 -4.036134 -29.326083 17.257375 -51.245871 -10.929791 -23.905286 -9.596737 0.000000 0.000000 0.000000 -4.357481 5.584837 -2.119296 -5.095119 20.631459 0.167769 -20.444877 -20.417969 45.886433 -10.967230 21.064978 13.236496 0.000000 0.000000 0.000000 
-0.079605 78.208717 6.415820 0.000000 0.000000 0.000000 -9.656702 -19.269835 1.575846 -58.350149 1.758255 21.365619 49.941725 -9.504783 -1.960172 -1.909055 -9.214580 -15.584031 0.000000 0.000000 0.000000 9.085028 -37.618848 -4.713555 -21.157486 -14.551636 -25.987960 44.025111 7.615437 2.908922 -12.750574 1.253767 20.979891 0.000000 0.000000 0.000000 0.763044 -22.687356 1.163673 6.315274 -33.317219 4.812137 9.503178 6.020545 -3.917866 5.005738 4.132371 -2.826245 0.000000 0.000000 0.000000 -0.009150 4.204780 -1.783529 -2.126836 1.985945 0.024243 0.000000 0.000000 0.000000 -3.195770 2.907646 -2.383557 -3.713208 -6.029782 -3.141319 -29.104560 17.781154 -51.512652 -10.900973 -23.407746 -9.887273 0.000000 0.000000 0.000000 -4.445135 5.472074 -2.155738 -5.050119 20.013060 0.126408 -20.106470 -21.183251 45.617870 -10.829096 20.411973 13.283384 0.000000 0.000000 0.000000 
